name D:\school\WTK\thesis\model\3dpredictsim\Results\MidTarsalJoint\Fal_s1_bCst_PF_Natali2010_ls150_MT_k10_MTP_T2_ig24_PFx10.mot
datacolumns 128
datarows 4
range 0.95045326 0.97896685
endheader
time	pelvis_tilt	pelvis_list	pelvis_rotation	pelvis_tx	pelvis_ty	pelvis_tz	hip_flexion_l	hip_adduction_l	hip_rotation_l	hip_flexion_r	hip_adduction_r	hip_rotation_r	knee_angle_l	knee_angle_r	ankle_angle_l	ankle_angle_r	subtalar_angle_l	subtalar_angle_r	mtj_angle_l	mtj_angle_r	mtp_angle_l	mtp_angle_r	lumbar_extension	lumbar_bending	lumbar_rotation	arm_flex_l	arm_add_l	arm_rot_l	arm_flex_r	arm_add_r	arm_rot_r	elbow_flex_l	elbow_flex_r	pro_sup_l	pro_sup_r	glut_med1_l/activation	glut_med2_l/activation	glut_med3_l/activation	glut_min1_l/activation	glut_min2_l/activation	glut_min3_l/activation	semimem_l/activation	semiten_l/activation	bifemlh_l/activation	bifemsh_l/activation	sar_l/activation	add_long_l/activation	add_brev_l/activation	add_mag1_l/activation	add_mag2_l/activation	add_mag3_l/activation	tfl_l/activation	pect_l/activation	grac_l/activation	glut_max1_l/activation	glut_max2_l/activation	glut_max3_l/activation	iliacus_l/activation	psoas_l/activation	quad_fem_l/activation	gem_l/activation	peri_l/activation	rect_fem_l/activation	vas_med_l/activation	vas_int_l/activation	vas_lat_l/activation	med_gas_l/activation	lat_gas_l/activation	soleus_l/activation	tib_post_l/activation	flex_dig_l/activation	flex_hal_l/activation	tib_ant_l/activation	per_brev_l/activation	per_long_l/activation	per_tert_l/activation	ext_dig_l/activation	ext_hal_l/activation	ercspn_l/activation	intobl_l/activation	extobl_l/activation	glut_med1_r/activation	glut_med2_r/activation	glut_med3_r/activation	glut_min1_r/activation	glut_min2_r/activation	glut_min3_r/activation	semimem_r/activation	semiten_r/activation	bifemlh_r/activation	bifemsh_r/activation	sar_r/activation	add_long_r/activation	add_brev_r/activation	add_mag1_r/activation	add_mag2_r/activation	add_mag3_r/activation	tfl_r/activation	pect_r/activation	grac_r/activation	glut_max1_r/activation	glut_max2_r/activation	glut_max3_r/activation	iliacus_r/activation	psoas_r/activation	quad_fem_r/activation	gem_r/activation	peri_r/activation	rect_fem_r/activation	vas_med_r/activation	vas_int_r/activation	vas_lat_r/activation	med_gas_r/activation	lat_gas_r/activation	soleus_r/activation	tib_post_r/activation	flex_dig_r/activation	flex_hal_r/activation	tib_ant_r/activation	per_brev_r/activation	per_long_r/activation	per_tert_r/activation	ext_dig_r/activation	ext_hal_r/activation	ercspn_r/activation	intobl_r/activation	extobl_r/activation	
          0.95045326	         -2.92622196	         -0.97913113	          2.71831833	          1.18806657	          0.92102748	         -0.00170633	        -17.62571829	          0.18747049	         11.06953991	         31.13911201	          3.89169534	          1.16497942	         -2.34146283	        -22.69542735	          4.05198830	          2.80503223	          9.21642824	         -4.03461746	         -2.80719205	        -14.55430130	         15.81348417	         59.97302859	         -2.67700916	         -0.04162853	         -1.36974349	          5.13120281	        -13.45044463	         12.12598914	         -2.66862267	        -13.47513913	          5.70162399	         24.60675616	         19.42807326	         86.51662706	         86.51662706	          0.35787571	          0.13103108	          0.10105790	          0.48386253	          0.29275759	          0.14116965	          0.05000170	          0.05000065	          0.05000045	          0.07301340	          0.14073113	          0.05000035	          0.05000036	          0.05000055	          0.05000155	          0.05000092	          0.49454637	          0.05000207	          0.05000229	          0.05001416	          0.05000480	          0.05000189	          0.54855512	          0.76650719	          0.05000093	          0.05001701	          0.07772901	          0.21881299	          0.05000099	          0.05000102	          0.05000104	          0.44211827	          0.52278261	          0.32277378	          0.25265006	          0.24360788	          0.28400744	          0.05000017	          0.05000067	          0.08251477	          0.05000065	          0.05000021	          0.05000089	          0.05000003	          0.05000007	          0.05000006	          0.05000067	          0.05000109	          0.05000085	          0.05000598	          0.05000207	          0.05000147	          0.05000073	          0.05000170	          0.42791669	          0.05000030	          0.05000090	          0.18643369	          0.23962905	          0.21637988	          0.19395543	          0.12777528	          0.05000089	          0.05045612	          0.06078118	          0.05000341	          0.05653134	          0.12898328	          0.05792155	          0.05791944	          0.20189558	          0.05000284	          0.05000159	          0.05000219	          0.08224042	          0.08284738	          0.06866018	          0.05118291	          0.05000351	          0.05006322	          0.08540058	          0.05000092	          0.05000108	          0.34311833	          0.22534121	          0.14180820	          0.19602906	          0.47244232	          0.06111359	          0.07391899	          0.11501466	          0.12652710	
          0.95995779	         -2.92048845	         -1.14370783	          3.04221122	          1.20173804	          0.91985519	         -0.00160636	        -17.71070657	         -0.10478045	         10.97403502	         30.74418626	          4.30695386	          1.18947318	         -3.66398157	        -22.20335341	          3.96347294	          2.28279032	         10.14219785	         -4.44610209	         -3.03664905	        -14.53507602	         16.44585101	         59.89444446	         -2.52213781	          0.18016789	         -1.39371396	          4.97279919	        -13.45339908	         12.36185506	         -3.14383569	        -13.47959421	          5.35347981	         25.43404734	         18.89697620	         86.51662706	         86.51662706	          0.33916950	          0.11311303	          0.08723862	          0.41769775	          0.25272403	          0.12186520	          0.05000195	          0.05000057	          0.05000028	          0.06302923	          0.12148695	          0.05000035	          0.05000032	          0.05000050	          0.05000137	          0.05000072	          0.47353268	          0.05000158	          0.05000360	          0.05721779	          0.05001669	          0.05000226	          0.48349437	          0.75738174	          0.05001003	          0.05002029	          0.06709994	          0.19526552	          0.05000047	          0.05000048	          0.05000049	          0.39392794	          0.47644970	          0.32291831	          0.24439106	          0.22246310	          0.29110897	          0.05000013	          0.05000101	          0.10935236	          0.05000041	          0.05000014	          0.05000056	          0.05000002	          0.05000003	          0.05000009	          0.05792024	          0.05000229	          0.05000039	          0.05791917	          0.05001733	          0.05000204	          0.05000205	          0.05162767	          0.41180165	          0.05000041	          0.05000054	          0.18780421	          0.27325794	          0.22456650	          0.20394794	          0.12539078	          0.05000094	          0.05010019	          0.09839858	          0.05000137	          0.05407563	          0.12663511	          0.05000122	          0.05000033	          0.34195589	          0.05316269	          0.05000076	          0.06641862	          0.10494397	          0.10475089	          0.08986920	          0.05000003	          0.05000006	          0.05000001	          0.07372243	          0.05000022	          0.05000015	          0.38380158	          0.19452670	          0.12241644	          0.38717194	          0.50823001	          0.17983116	          0.06679805	          0.09928679	          0.10922493	
          0.96946232	         -2.91141939	         -1.30728474	          3.35126905	          1.21573949	          0.91886277	         -0.00150187	        -17.70296423	         -0.38439616	         10.87229245	         30.28110723	          4.72273830	          1.24562363	         -5.15923238	        -22.29978014	          3.77615613	          1.94239649	         11.06169666	         -4.93934841	         -3.40109880	        -14.52739751	         17.44071122	         59.89434850	         -2.33802308	          0.40742590	         -1.41160903	          4.73183027	        -13.45924500	         12.55486110	         -3.66123326	        -13.48363611	          5.03270543	         26.28634009	         18.40534224	         86.51662706	         86.51662706	          0.29278938	          0.09764520	          0.07530904	          0.36057931	          0.21816488	          0.10520055	          0.05000157	          0.05000047	          0.05000066	          0.05441032	          0.10487417	          0.05000093	          0.05000060	          0.05000107	          0.05000258	          0.05000216	          0.40878046	          0.05000716	          0.05000274	          0.05000593	          0.05000291	          0.05000207	          0.41737806	          0.70832010	          0.05000334	          0.05792344	          0.05792435	          0.21119856	          0.05792415	          0.05792345	          0.05792212	          0.34005952	          0.41129679	          0.31820115	          0.22521343	          0.19204366	          0.25136236	          0.05000014	          0.05000076	          0.11903962	          0.05000055	          0.05000015	          0.05000062	          0.05000008	          0.06709549	          0.05000003	          0.05000004	          0.05000010	          0.05000969	          0.05000010	          0.05000013	          0.05000017	          0.05000012	          0.05000021	          0.36288142	          0.05000029	          0.05792179	          0.16212317	          0.30396302	          0.29243978	          0.20835613	          0.10832929	          0.05000038	          0.07773396	          0.10822335	          0.05000147	          0.07838810	          0.13393494	          0.06709519	          0.06709594	          0.59719015	          0.12302853	          0.05000154	          0.05864077	          0.11332380	          0.11995339	          0.10974727	          0.05000004	          0.05000012	          0.05000001	          0.22253207	          0.15157654	          0.11125946	          0.45860034	          0.16792578	          0.10567638	          0.33422740	          0.43873115	          0.16110212	          0.05792042	          0.08570964	          0.09428877	
          0.97896685	         -2.89906912	         -1.48061948	          3.64647912	          1.23003584	          0.91806318	         -0.00141723	        -17.60267156	         -0.66081850	         10.75720752	         29.74469692	          5.08973656	          1.38810683	         -6.81325765	        -22.89770255	          3.47045525	          1.96136221	         11.96434807	         -5.52105771	         -3.91964100	        -14.53067762	         18.83581240	         60.09951007	         -2.12799905	          0.65099363	         -1.42200352	          4.41690062	        -13.46266702	         12.71224618	         -4.21887861	        -13.49281045	          4.74000066	         27.15506035	         17.96127837	         86.51662706	         86.51662706	          0.43779489	          0.08429254	          0.06501078	          0.31127456	          0.18833157	          0.09081473	          0.05000274	          0.05000090	          0.05000038	          0.05000037	          0.09053309	          0.05590011	          0.05379729	          0.05000869	          0.05001163	          0.05000359	          0.39618530	          0.05002484	          0.05000421	          0.05002556	          0.05002172	          0.05001137	          0.36030299	          0.68665047	          0.05000102	          0.05000334	          0.05000340	          0.18231783	          0.05000399	          0.05000332	          0.05000203	          0.29355743	          0.35505324	          0.28084207	          0.19441636	          0.16578265	          0.21698976	          0.05000006	          0.05057670	          0.15001514	          0.05000024	          0.05000009	          0.05000034	          0.06144253	          0.05792041	          0.05792055	          0.28880415	          0.05000053	          0.05000009	          0.05586807	          0.05000165	          0.19456722	          0.06228597	          0.07327612	          0.31325856	          0.05817331	          0.05000165	          0.13995344	          0.26239743	          0.25244972	          0.17986485	          0.13860919	          0.05000068	          0.06710786	          0.12255375	          0.05000029	          0.12163108	          0.11674598	          0.05792034	          0.05792084	          0.51552627	          0.10620492	          0.06127836	          0.05062185	          0.09782729	          0.10355055	          0.10164632	          0.08857558	          0.10293784	          0.08064266	          0.19210155	          0.13084910	          0.09604519	          0.39588816	          0.17317689	          0.12082194	          0.28852291	          0.37873608	          0.13907197	          0.05000005	          0.11411107	          0.08139508	
